<svg viewBox="0 0 396 150"
    xmlns="http://www.w3.org/2000/svg">
    <g mask="url(#mask0_258_17209)">
        <path d="M289.728 57.4523C289.584 57.4523 286.238 57.411 286.238 54.3216C286.238 54.2163 286.286 51.7363 290.448 51.7363H299.421V57.4523H289.728ZM299.394 62.3256C299.328 64.1296 298.86 65.4856 297.981 66.3363C296.64 67.6296 294.65 67.5696 293.198 67.543C293.012 67.539 190.896 67.543 190.896 67.543V46.8963H183.92V72.371L292.073 72.3776C297.716 72.3776 301.801 71.0776 304.213 68.507C306.529 66.043 306.392 63.3443 306.386 63.2443L306.401 46.8923H287.884C287.713 46.8923 283.604 46.879 281.065 49.399C279.794 50.6576 279.145 52.3323 279.145 54.3763C279.145 56.4376 280.596 62.3256 287.033 62.3256H299.394ZM177.774 53.8883L170.292 58.235V70.0043C170.292 72.0043 169.841 73.455 168.954 74.3203C167.732 75.511 165.846 75.4603 164.468 75.4216C164.241 75.415 164.026 75.4083 163.828 75.4083C157.668 75.4083 157.549 71.711 157.548 71.5536V53.8963L150.008 58.235L150.028 71.9043C150.028 80.3216 161.028 80.7496 163.23 80.7496C169.145 80.7496 173.362 79.3923 175.764 76.7243C178.042 74.1923 177.77 71.6123 177.77 71.319L177.774 53.8883ZM322.452 67.5616V50.7083L315.497 54.7176L315.488 70.231C315.488 72.255 315.01 73.751 314.07 74.671C312.73 75.991 310.724 75.951 309.258 75.9256C309.07 75.9203 300.492 75.9176 300.492 75.9176V80.7443H308.138C320.358 80.7443 322.164 75.731 322.413 73.5176C322.413 73.5176 322.422 72.3016 322.413 72.371L327.278 72.3776C332.926 72.3776 337.016 71.0736 339.432 68.5043C341.746 66.0416 341.61 63.3443 341.604 63.231V50.707L334.624 54.7176L334.63 61.8736C334.63 63.895 334.156 65.3896 333.217 66.3136C331.876 67.631 329.873 67.5696 328.41 67.5416L322.452 67.5616ZM160.174 51.583H167.149V46.7656H160.176L160.174 51.583Z" fill="#0069AA"/>
        <path d="M251.695 51.4905H258.669V46.6719H251.695V51.4905ZM261.875 51.4905H268.849V46.6719H261.875V51.4905ZM334.63 80.7052H341.603V75.8892H334.63V80.7052Z" fill="#0069AA"/>
        <path d="M108.62 109.024C103.371 114.524 101.899 121.641 105.324 124.919C108.754 128.2 115.784 126.399 121.044 120.899C126.292 115.396 127.77 108.272 124.344 104.999C120.911 101.715 113.874 103.523 108.62 109.024Z" fill="#F68E1E"/>
        <path d="M100.271 24.2379C92.4099 16.7019 69.0312 28.8246 47.5912 51.1979C46.0126 52.8499 44.4899 54.7073 43.0312 56.5273L62.3472 74.3806C63.7974 72.6463 65.3095 70.9648 66.8806 69.3393C77.2326 58.5273 88.0393 50.0993 97.9099 46.7339C102.79 36.4406 104.337 28.1446 100.27 24.2379" fill="#0069AA"/>
        <path fill-rule="evenodd" clip-rule="evenodd" d="M183.921 89.3127H190.429V105.745C190.429 105.745 189.821 110.105 196.62 110.105C198.829 110.105 204.214 110.881 204.214 104.193V89.3047H210.724V105.563C210.724 105.563 211.537 114.466 196.634 114.466C194.074 114.466 183.921 113.87 183.921 106.101V89.3127ZM276.41 89.3047V93.822H262.912C262.912 93.822 255.514 93.4353 255.514 100.609C255.514 101.809 254.586 109.506 261.968 109.506H269.726V103.797H261.304V99.23H276.584V114.319H263.098C263.098 114.319 248.052 115.357 248.052 101.333C248.052 97.9633 249.961 89.3087 260.105 89.3087C269.718 89.3087 276.409 89.3047 276.409 89.3047M232.421 99.922H223.342V93.774H232.534C235.877 93.774 237.01 95.2193 237.01 96.7247C237.01 100.197 232.421 99.922 232.421 99.922ZM237.544 103.842C242.973 102.815 243.638 98.4767 243.638 96.7247C243.638 89.078 233.792 89.3113 233.792 89.3113H216.842V114.326H223.346V104.502L230.893 104.495L237.885 114.325H245.281L237.544 103.842ZM291.272 103.761L295.598 94.5993L299.926 103.761H291.272ZM299.088 89.3127H292.117L279.198 114.326H286.312L289.082 108.417H302.32L305.153 114.327H312.386L299.088 89.3127ZM314.672 89.3127H323.009L335.342 106.806V89.3127H341.606V114.326H334.62L321.204 96.07V114.327H314.694L314.672 89.3127ZM166.485 109.457H156.512V103.986H166.546C168.817 103.986 170.245 105.221 170.245 106.534C170.245 109.699 166.485 109.457 166.485 109.457ZM166.485 99.286H156.512V93.8167H166.546C168.817 93.8167 170.245 95.0487 170.245 96.3633C170.245 99.5273 166.485 99.286 166.485 99.286ZM172.986 101.614C172.986 101.614 177.466 100.485 177.466 95.822C177.466 91.166 172.748 89.3047 168.692 89.3047C164.636 89.3047 150.008 89.3127 150.008 89.3127V114.319H167.378C167.378 114.319 177.409 114.826 177.409 107.651C177.409 104.483 175.916 102.81 172.986 101.614Z" fill="#0069AA"/>
        <path d="M105.989 24.1875L124.872 45.4942C125.088 45.7222 126.004 46.7782 126.004 46.7782C134.143 56.8848 124.685 80.3915 104.603 101.365C84.0933 122.788 60.6133 134.085 49.7427 124.786L27 106.549C31.372 109.304 39.0147 107.912 48.1053 103.268C48.2947 103.174 48.48 103.076 48.672 102.98C48.782 102.917 48.8931 102.857 49.0053 102.799C58.54 97.7595 69.5547 89.2688 80.0293 78.3288C90.532 67.3515 98.5653 55.9288 103.177 46.1608L103.356 45.7808C103.441 45.5982 103.525 45.4182 103.604 45.2342C107.781 36.0662 108.845 28.4408 105.989 24.1875Z" fill="#00A0E3"/>
    </g>
</svg>
