<?xml version="1.0" ?>
<svg height="180px" version="1.1" viewBox="0 0 180 180" width="180px"
    xmlns="http://www.w3.org/2000/svg"
    xmlns:sketch="http://www.bohemiancoding.com/sketch/ns"
    xmlns:xlink="http://www.w3.org/1999/xlink">
    <title/>
    <desc/>
    <defs/>
    <g fill="none" fill-rule="evenodd" id="Page-1" stroke="none" stroke-width="1">
        <g id="Material" transform="translate(-180.000000, -180.000000)">
            <g id="Slice" transform="translate(180.000000, 180.000000)"/>
            <g id="circle_kuwait" transform="translate(180.000000, 180.000000)">
                <ellipse cx="89.9972382" cy="90" fill="#FFFFFF" id="Rectangle-3-copy-2" rx="89.9972382" ry="90"/>
                <path d="M174.873467,120 L50,120 L12.1266129,135.149355 C27.7087043,161.968031 56.7472386,180 89.9972382,180 C129.182603,180 162.51875,154.955772 174.873463,120 Z" fill="#F1453D" id="Rectangle-3-copy-3"/>
                <path d="M174.873467,60 L50,60 L12.1266129,44.8506451 C27.7087043,18.0319689 56.7472386,0 89.9972382,0 C129.182603,0 162.51875,25.0442275 174.873463,59.9999996 Z" fill="#4EAB53" id="Rectangle-3-copy-3"/>
                <path d="M12.1266129,44.8506451 L50,60 L50,120 L12.1266129,135.149355 C4.4156543,121.877856 0,106.45461 0,90 C0,73.54539 4.4156543,58.1221436 12.1266129,44.8506451 Z" fill="#262626" id="Triangle-15-copy"/>
            </g>
        </g>
    </g>
</svg>